<svg width="30" height="30" viewBox="0 0 30 30" fill="none" xmlns="http://www.w3.org/2000/svg">
<g clip-path="url(#clip0_16_23)">
<path d="M15 28.875C7.35001 28.875 1.125 22.65 1.125 15C1.125 7.35039 7.35003 1.125 15 1.125C22.65 1.125 28.875 7.35039 28.875 15C28.875 22.65 22.65 28.875 15 28.875Z" stroke="white" stroke-width="2.25"/>
<path d="M12.8459 19.7883C13.2842 19.6974 13.6653 19.5285 13.9877 19.2812C14.2731 19.0665 14.5123 18.8016 14.7034 18.4865C15.0032 18.0103 15.1531 17.4739 15.1531 16.8745C15.1531 16.2945 15.0218 15.8008 14.7598 15.3941C14.4972 14.9873 14.1081 14.6901 13.5923 14.5024C13.9317 14.3291 14.1887 14.1372 14.3634 13.9269C14.675 13.5527 14.8315 13.0562 14.8315 12.4392C14.8315 11.8406 14.6764 11.3263 14.3673 10.8968C13.8535 10.198 12.9804 9.83918 11.7487 9.8208H6.86404V19.9259H11.4178C11.9309 19.9256 12.4075 19.8798 12.8459 19.7883ZM8.8798 11.5755H11.0784C11.5624 11.5755 11.9604 11.6279 12.2725 11.7335C12.6348 11.884 12.8156 12.1947 12.8156 12.6656C12.8156 13.0907 12.6784 13.3869 12.4044 13.5535C12.1313 13.7202 11.7748 13.8036 11.3356 13.8036H8.8798V11.5755ZM8.8798 18.1707V15.477H11.3669C11.8016 15.4814 12.1374 15.5382 12.3772 15.6481C12.8061 15.8444 13.0208 16.2052 13.0208 16.7309C13.0208 17.3523 12.7994 17.7731 12.3566 17.9929C12.1129 18.1119 11.7713 18.1709 11.3337 18.1709H8.8798V18.1707Z" fill="white"/>
<path d="M16.8645 19.2597C17.6245 19.873 18.502 20.1793 19.4964 20.1793C20.7016 20.1793 21.6388 19.8163 22.3073 19.0892C22.7384 18.6318 22.9796 18.1815 23.0323 17.7387H21.0374C20.9214 17.9579 20.7873 18.129 20.6352 18.2524C20.3568 18.4813 19.9954 18.5956 19.5503 18.5956C19.1305 18.5956 18.7717 18.5019 18.4735 18.3144C17.9828 18.0126 17.7222 17.4872 17.6919 16.7373H23.1342C23.1439 16.0924 23.1222 15.5979 23.0699 15.2546C22.9792 14.6686 22.7806 14.1536 22.4744 13.71C22.1356 13.2068 21.7047 12.8377 21.1828 12.6043C20.6624 12.371 20.0764 12.2546 19.4257 12.2546C18.3311 12.2546 17.4402 12.5999 16.754 13.2908C16.0677 13.9809 15.7245 14.9736 15.7245 16.268C15.7243 17.6494 16.1043 18.6466 16.8645 19.2597ZM18.2602 14.2922C18.5368 14.008 18.9251 13.8657 19.4263 13.8657C19.8875 13.8657 20.2742 14.0001 20.5857 14.268C20.8972 14.5365 21.0707 14.9306 21.1061 15.4488H17.7396C17.8107 14.9623 17.9841 14.5771 18.2602 14.2922Z" fill="white"/>
<path d="M21.4942 10.4014H17.1028V11.4212H21.4942V10.4014Z" fill="white"/>
</g>
<defs>
<clipPath id="clip0_16_23">
<rect width="30" height="30" fill="white"/>
</clipPath>
</defs>
</svg>
