<svg width="30" height="30" viewBox="0 0 30 30" fill="none" xmlns="http://www.w3.org/2000/svg">
<g clip-path="url(#clip0_16_37)">
<path d="M15 28.875C7.35001 28.875 1.125 22.65 1.125 15C1.125 7.35039 7.35003 1.125 15 1.125C22.65 1.125 28.875 7.35039 28.875 15C28.875 22.65 22.65 28.875 15 28.875Z" stroke="white" stroke-width="2.25"/>
<path d="M9.75 9.78448C9.75 9.44218 9.87165 9.16279 10.1141 8.94801C10.3574 8.73239 10.6687 8.625 11.0479 8.625C11.4364 8.625 11.7518 8.73491 11.9918 8.95472C12.2326 9.17454 12.3525 9.4514 12.3525 9.78448C12.3525 10.1226 12.2301 10.4037 11.9842 10.6277C11.7392 10.8525 11.4263 10.9641 11.0471 10.9641C10.672 10.9641 10.3625 10.8508 10.1166 10.6235C9.87249 10.3978 9.75 10.1176 9.75 9.78448ZM9.91612 19.9413V12.2629H12.152V19.9413H9.91612Z" fill="white"/>
<path d="M21 19.9413H18.7716V15.6574C18.7716 14.4174 18.3245 13.7966 17.4318 13.7966C17.0056 13.7966 16.6515 13.9618 16.3696 14.2932C16.0869 14.6246 15.9459 15.0466 15.9459 15.5601V19.9413H13.7033V12.2629H15.9459V13.4845H15.9736C16.5341 12.5448 17.3571 12.075 18.4453 12.075C20.1484 12.075 21 13.1304 21 15.2405V19.9413Z" fill="white"/>
</g>
<defs>
<clipPath id="clip0_16_37">
<rect width="30" height="30" fill="white"/>
</clipPath>
</defs>
</svg>
